# xmcd
#
# Track frame offsets: 
#        150
#        15825
#        33575
#        55638
#        77925
#        99175
#        122413
#        145375
#        165800
#        181738
#        200788
#        226038
#
# Disc length: 3314 seconds
#
# Revision: 1
# Processed by: cddbd v1.5.2PL0 Copyright (c) Steve Scherf et al.
# Submitted via: ExactAudioCopyFreeDBPlugin 1.0
#
DISCID=840cf00c
DTITLE=齊豫 - 齊豫英文自傳敢夢
DYEAR=1994
DGENRE=Chanson
TTITLE0=Danny's Song
TTITLE1=Sad Lisa
TTITLE2=Stories
TTITLE3=Borderline
TTITLE4=Unborn Heart
TTITLE5=Whoever Finds This I Love You
TTITLE6=Paradise Bird
TTITLE7=Diamonds And Rust
TTITLE8=Angels, Roses and Pain
TTITLE9=Vincent
TTITLE10=Like A Hero
TTITLE11=Wind Beneath My Wings
EXTD=
EXTT0=
EXTT1=
EXTT2=
EXTT3=
EXTT4=
EXTT5=
EXTT6=
EXTT7=
EXTT8=
EXTT9=
EXTT10=
EXTT11=
PLAYORDER=
